# xmcd
#
# Track frame offsets:
#	150
#	16083
#	31038
#	52321
#	73031
#	84072
#	100325
#	112514
#	125223
#	143535
#	158633
#
# Disc length: 2555 seconds
#
# Revision: 1
# Processed by: cddbd v1.5.2PL0 Copyright (c) Steve Scherf et al.
# Submitted via: audiograbber 1.83.01
#
DISCID=7f09f90b
DTITLE=Gunhands, The - Country Strange
DYEAR=2008
DGENRE=Country
TTITLE0=Overpass Cowboy
TTITLE1=Wish I Was Somewhere Stoned, Playing Pinball
TTITLE2=Ashville
TTITLE3=Momma Loves Jesus
TTITLE4=Underground
TTITLE5=Harps and Halos
TTITLE6=Greaser
TTITLE7=Been Caught Stealing
TTITLE8=Pass the Shine
TTITLE9=Fixer-Upper
TTITLE10=Stay with Me
EXTD=
EXTT0=
EXTT1=
EXTT2=
EXTT3=
EXTT4=
EXTT5=
EXTT6=
EXTT7=
EXTT8=
EXTT9=
EXTT10=
PLAYORDER=
